<svg width="48" height="48" viewBox="0 0 48 48" fill="none" xmlns="http://www.w3.org/2000/svg">
<circle cx="24" cy="24" r="24" fill="url(#paint0_linear_27680_45513)"/>
<g clip-path="url(#clip0_27680_45513)">
<path d="M33.1824 23.1693H34.1236C33.9508 21.1408 33.144 19.2906 31.9024 17.8178L31.2401 18.4802C30.9195 18.8008 30.3998 18.8008 30.0792 18.4802C29.7586 18.1597 29.7586 17.6399 30.0792 17.3193L30.7415 16.6569C29.2688 15.4154 27.4186 14.6086 25.39 14.4357V15.377C25.3466 16.4662 23.7912 16.4654 23.7483 15.377V14.4357C21.7197 14.6086 19.8695 15.4154 18.3968 16.6569L19.0591 17.3193C19.3797 17.6398 19.3797 18.1596 19.0591 18.4802C18.7385 18.8008 18.2188 18.8008 17.8982 18.4802L17.2359 17.8178C15.9943 19.2906 15.1875 21.1408 15.0146 23.1693H15.9559C17.0451 23.2127 17.0443 24.7682 15.9559 24.8111H15.0146C15.1875 26.8396 15.9943 28.6899 17.2358 30.1626L17.8982 29.5002C18.2188 29.1797 18.7385 29.1796 19.0591 29.5002C19.3797 29.8207 19.3797 30.3405 19.0591 30.6611L18.3967 31.3235C19.8694 32.5651 21.7196 33.3719 23.7482 33.5447V32.6034C23.7916 31.5142 25.347 31.515 25.39 32.6034V33.5447C27.4185 33.3718 29.2687 32.565 30.7414 31.3235L30.079 30.6611C29.7584 30.3405 29.7585 29.8207 30.0791 29.5001C30.3996 29.1796 30.9194 29.1797 31.24 29.5001L31.9023 30.1626C33.1439 28.6898 33.9507 26.8396 34.1235 24.8111H33.1822C32.0932 24.7678 32.094 23.2123 33.1824 23.1693ZM27.366 26.7871C27.0454 27.1077 26.5257 27.1077 26.2051 26.7871L23.9887 24.5707C23.8348 24.4168 23.7483 24.208 23.7483 23.9903V20.3784C23.7917 19.2892 25.3471 19.29 25.39 20.3784V23.6503L27.366 25.6262C27.6866 25.9467 27.6866 26.4665 27.366 26.7871Z" fill="#F7FBFF"/>
<path d="M36.9531 28.6013C36.5389 28.417 36.0537 28.6034 35.8694 29.0176C30.301 41.1048 12.3829 37.3095 12.2012 23.99C12.1577 13.9214 23.8473 8.02719 31.9091 14.0359L31.2844 14.0179C30.1942 14.0318 30.1504 15.584 31.237 15.659L34.533 15.7541C34.8047 15.7621 35.0647 15.6339 35.2235 15.4123C35.3826 15.1907 35.4212 14.9046 35.3266 14.6488L34.1827 11.5562C34.0254 11.131 33.5533 10.9139 33.128 11.0711C32.7028 11.2284 32.4856 11.7006 32.6429 12.1258L32.8521 12.6914C27.4792 8.62967 19.3507 9.22213 14.6628 14.0839C5.87784 22.8864 12.1346 37.9883 24.5693 38C30.0977 38.0001 35.1221 34.7362 37.3694 29.685C37.5537 29.2708 37.3673 28.7856 36.9531 28.6013Z" fill="#F7FBFF"/>
</g>
<defs>
<linearGradient id="paint0_linear_27680_45513" x1="24" y1="0" x2="24" y2="48" gradientUnits="userSpaceOnUse">
<stop stop-color="#048EE7"/>
<stop offset="1" stop-color="#0072BB"/>
</linearGradient>
<clipPath id="clip0_27680_45513">
<rect width="28" height="28" fill="white" transform="translate(10 10)"/>
</clipPath>
</defs>
</svg>
